<?xml version="1.0" standalone="no"?>
<!DOCTYPE svg PUBLIC "-//W3C//DTD SVG 20010904//EN"
 "http://www.w3.org/TR/2001/REC-SVG-20010904/DTD/svg10.dtd">
<svg version="1.0" xmlns="http://www.w3.org/2000/svg"
 width="300.000000pt" height="300.000000pt" viewBox="0 0 300.000000 300.000000"
 preserveAspectRatio="xMidYMid meet">
<metadata>
Created by potrace 1.11, written by Peter Selinger 2001-2013
</metadata>
<g transform="translate(0.000000,300.000000) scale(0.100000,-0.100000)"
fill="#000000" stroke="none">
<path d="M11 1500 c0 -607 3 -799 12 -802 7 -2 676 -4 1487 -4 l1475 1 3 798
c1 438 -1 797 -5 798 -5 0 -675 3 -1490 5 l-1481 3 -1 -799z m2921 -3 c0 -406
-2 -741 -6 -744 -9 -9 -1957 -9 -1963 0 -4 6 -7 1190 -4 1434 l1 52 986 -2
987 -2 -1 -738z m-2508 501 c11 -17 15 -55 14 -148 l0 -125 78 -1 c107 -1 130
-8 142 -44 9 -24 7 -33 -8 -52 -17 -21 -26 -23 -114 -23 l-96 0 0 -75 c-1
-132 -1 -324 -1 -347 1 -34 48 -81 86 -89 27 -5 45 0 79 20 53 31 86 29 106
-7 13 -24 13 -30 0 -54 -21 -37 -91 -75 -146 -78 -67 -4 -119 13 -168 56 -79
69 -78 68 -78 537 0 381 1 414 17 432 25 27 71 26 89 -2z"/>
<path d="M1284 1998 c-5 -13 -9 -155 -8 -323 1 -323 2 -333 56 -381 36 -33 63
-44 110 -44 79 0 145 51 127 98 -10 27 -43 29 -84 4 -41 -25 -92 -12 -108 27
-10 23 -15 227 -8 321 1 12 15 15 67 14 53 -1 70 2 85 17 15 15 17 24 9 39
-15 29 -27 33 -96 32 -42 0 -64 4 -65 11 0 7 -2 50 -3 97 -1 47 -5 91 -9 98
-14 21 -63 15 -73 -10z"/>
<path d="M2100 1790 c-20 -13 -22 -772 -2 -801 17 -24 37 -24 60 -1 16 16 18
37 17 175 -1 156 0 156 20 141 51 -37 91 -49 170 -49 91 0 136 17 193 74 137
137 97 364 -80 446 -84 39 -189 32 -260 -17 -31 -21 -49 -23 -42 -4 12 31 -43
57 -76 36z m378 -117 c96 -72 96 -218 1 -295 -151 -122 -365 50 -283 228 20
46 77 92 121 99 21 4 43 8 48 9 20 5 81 -17 113 -41z"/>
</g>
</svg>
